<?xml version="1.0" encoding="utf-8"?>
<!-- Generator: Adobe Illustrator 15.0.2, SVG Export Plug-In . SVG Version: 6.00 Build 0)  -->
<!DOCTYPE svg PUBLIC "-//W3C//DTD SVG 1.1//EN" "http://www.w3.org/Graphics/SVG/1.1/DTD/svg11.dtd">
<svg version="1.1" id="Layer_1" xmlns="http://www.w3.org/2000/svg" xmlns:xlink="http://www.w3.org/1999/xlink" x="0px" y="0px"
	 width="74.986px" height="32.84px" viewBox="0 0 74.986 32.84" enable-background="new 0 0 74.986 32.84" xml:space="preserve">
<g transform="matrix(1, 0, 0, 1, -735, -297)">
	<g>
		<path d="M736.5,306v14.84c0,4.143,3.358,7.5,7.5,7.5h56.986c4.142,0,7.5-3.357,7.5-7.5V306c0-4.143-3.358-7.5-7.5-7.5H744
			C739.858,298.5,736.5,301.857,736.5,306z"/>
	</g>
</g>
<g transform="matrix(1, 0, 0, 1, 21, 337.42578125)">
	<g>
		<path fill="#FFFFFF" d="M-3.583-317.99c-0.367,0.176-0.716,0.312-1.046,0.41s-0.681,0.146-1.052,0.146
			c-0.473,0-0.906-0.069-1.301-0.208s-0.732-0.349-1.014-0.63c-0.285-0.281-0.506-0.637-0.662-1.066s-0.234-0.932-0.234-1.506
			c0-1.07,0.294-1.91,0.882-2.52s1.364-0.914,2.329-0.914c0.375,0,0.743,0.053,1.104,0.158s0.692,0.234,0.993,0.387v1.225h-0.059
			c-0.336-0.262-0.683-0.463-1.04-0.604s-0.706-0.211-1.046-0.211c-0.625,0-1.118,0.21-1.479,0.63s-0.542,1.036-0.542,1.849
			c0,0.789,0.177,1.396,0.53,1.819s0.851,0.636,1.491,0.636c0.223,0,0.449-0.029,0.68-0.088s0.438-0.135,0.621-0.229
			c0.16-0.082,0.311-0.169,0.451-0.261s0.252-0.171,0.334-0.237h0.059V-317.99z M3.407-320.85c0,1.066-0.273,1.908-0.82,2.525
			s-1.279,0.926-2.197,0.926c-0.926,0-1.661-0.309-2.206-0.926s-0.817-1.459-0.817-2.525s0.272-1.909,0.817-2.528
			s1.28-0.929,2.206-0.929c0.918,0,1.65,0.31,2.197,0.929S3.407-321.916,3.407-320.85z M2.271-320.85
			c0-0.848-0.166-1.478-0.498-1.89s-0.793-0.618-1.383-0.618c-0.598,0-1.062,0.206-1.392,0.618s-0.495,1.042-0.495,1.89
			c0,0.82,0.166,1.442,0.498,1.866s0.795,0.636,1.389,0.636c0.586,0,1.046-0.21,1.38-0.63S2.271-320.021,2.271-320.85z
			 M10.585-317.58H9.483v-3.727c0-0.301-0.018-0.583-0.053-0.847s-0.1-0.47-0.193-0.618c-0.098-0.164-0.238-0.286-0.422-0.366
			s-0.422-0.12-0.715-0.12c-0.301,0-0.615,0.074-0.943,0.223s-0.643,0.338-0.943,0.568v4.887H5.112v-6.545h1.102v0.727
			c0.344-0.285,0.699-0.508,1.066-0.668s0.744-0.24,1.131-0.24c0.707,0,1.246,0.213,1.617,0.639s0.557,1.039,0.557,1.84V-317.58z
			 M17.546-317.99c-0.367,0.176-0.716,0.312-1.046,0.41s-0.681,0.146-1.052,0.146c-0.473,0-0.906-0.069-1.301-0.208
			s-0.732-0.349-1.014-0.63c-0.285-0.281-0.506-0.637-0.662-1.066s-0.234-0.932-0.234-1.506c0-1.07,0.294-1.91,0.882-2.52
			s1.364-0.914,2.329-0.914c0.375,0,0.743,0.053,1.104,0.158s0.692,0.234,0.993,0.387v1.225h-0.059
			c-0.336-0.262-0.683-0.463-1.04-0.604s-0.706-0.211-1.046-0.211c-0.625,0-1.118,0.21-1.479,0.63s-0.542,1.036-0.542,1.849
			c0,0.789,0.177,1.396,0.53,1.819s0.851,0.636,1.491,0.636c0.223,0,0.449-0.029,0.68-0.088s0.438-0.135,0.621-0.229
			c0.16-0.082,0.311-0.169,0.451-0.261s0.252-0.171,0.334-0.237h0.059V-317.99z M24.437-320.738h-4.822
			c0,0.402,0.061,0.753,0.182,1.052s0.287,0.544,0.498,0.735c0.203,0.188,0.444,0.328,0.724,0.422s0.587,0.141,0.923,0.141
			c0.445,0,0.894-0.089,1.345-0.267s0.772-0.353,0.964-0.524h0.059v1.201c-0.371,0.156-0.75,0.287-1.137,0.393
			s-0.793,0.158-1.219,0.158c-1.086,0-1.934-0.294-2.543-0.882s-0.914-1.423-0.914-2.505c0-1.07,0.292-1.92,0.876-2.549
			s1.353-0.943,2.306-0.943c0.883,0,1.563,0.258,2.042,0.773s0.718,1.248,0.718,2.197V-320.738z M23.364-321.582
			c-0.004-0.578-0.149-1.025-0.437-1.342s-0.724-0.475-1.31-0.475c-0.59,0-1.06,0.174-1.409,0.521s-0.548,0.779-0.595,1.295H23.364z
			 M31.866-320.932c0,0.531-0.076,1.017-0.229,1.456s-0.367,0.812-0.645,1.116c-0.258,0.289-0.562,0.513-0.911,0.671
			s-0.72,0.237-1.11,0.237c-0.34,0-0.647-0.037-0.923-0.111s-0.556-0.189-0.841-0.346v2.742h-1.102v-8.959h1.102v0.686
			c0.293-0.246,0.622-0.452,0.987-0.618s0.755-0.249,1.169-0.249c0.789,0,1.403,0.298,1.843,0.894S31.866-321.99,31.866-320.932z
			 M30.729-320.902c0-0.789-0.135-1.379-0.404-1.77s-0.684-0.586-1.242-0.586c-0.316,0-0.635,0.068-0.955,0.205
			s-0.627,0.316-0.92,0.539v3.709c0.312,0.141,0.581,0.236,0.806,0.287s0.479,0.076,0.765,0.076c0.613,0,1.092-0.207,1.436-0.621
			S30.729-320.09,30.729-320.902z M36.981-317.639c-0.207,0.055-0.433,0.1-0.677,0.135s-0.462,0.053-0.653,0.053
			c-0.668,0-1.176-0.18-1.523-0.539s-0.521-0.936-0.521-1.729v-3.48h-0.744v-0.926h0.744v-1.881h1.102v1.881h2.273v0.926h-2.273
			v2.982c0,0.344,0.008,0.612,0.023,0.806s0.07,0.374,0.164,0.542c0.086,0.156,0.204,0.271,0.354,0.343s0.38,0.108,0.688,0.108
			c0.18,0,0.367-0.026,0.562-0.079s0.336-0.097,0.422-0.132h0.059V-317.639z M42.987-319.467c0,0.598-0.247,1.088-0.741,1.471
			s-1.169,0.574-2.024,0.574c-0.484,0-0.929-0.058-1.333-0.173s-0.743-0.241-1.017-0.378v-1.236h0.059
			c0.348,0.262,0.734,0.47,1.16,0.624s0.834,0.231,1.225,0.231c0.484,0,0.863-0.078,1.137-0.234s0.41-0.402,0.41-0.738
			c0-0.258-0.074-0.453-0.223-0.586s-0.434-0.246-0.855-0.34c-0.156-0.035-0.36-0.076-0.612-0.123s-0.481-0.098-0.688-0.152
			c-0.574-0.152-0.981-0.376-1.222-0.671s-0.36-0.657-0.36-1.087c0-0.27,0.056-0.523,0.167-0.762s0.28-0.451,0.507-0.639
			c0.219-0.184,0.497-0.329,0.835-0.437s0.716-0.161,1.134-0.161c0.391,0,0.786,0.048,1.187,0.144s0.733,0.212,0.999,0.349v1.178
			h-0.059c-0.281-0.207-0.623-0.382-1.025-0.524s-0.797-0.214-1.184-0.214c-0.402,0-0.742,0.077-1.02,0.231
			s-0.416,0.384-0.416,0.688c0,0.27,0.084,0.473,0.252,0.609c0.164,0.137,0.43,0.248,0.797,0.334
			c0.203,0.047,0.431,0.094,0.683,0.141s0.462,0.09,0.63,0.129c0.512,0.117,0.906,0.318,1.184,0.604
			C42.849-320.326,42.987-319.943,42.987-319.467z"/>
	</g>
</g>
<g transform="matrix(1, 0, 0, 1, -735, -297)">
	<g>
		<path fill="none" stroke="#000000" stroke-width="3" stroke-linecap="square" stroke-miterlimit="10" d="M736.5,306v14.84
			c0,4.143,3.358,7.5,7.5,7.5h56.986c4.142,0,7.5-3.357,7.5-7.5V306c0-4.143-3.358-7.5-7.5-7.5H744
			C739.858,298.5,736.5,301.857,736.5,306z"/>
	</g>
</g>
</svg>
