<?xml version="1.0" encoding="utf-8"?>
<!-- Generator: Adobe Illustrator 15.0.2, SVG Export Plug-In . SVG Version: 6.00 Build 0)  -->
<!DOCTYPE svg PUBLIC "-//W3C//DTD SVG 1.1//EN" "http://www.w3.org/Graphics/SVG/1.1/DTD/svg11.dtd">
<svg version="1.1" id="Layer_1" xmlns="http://www.w3.org/2000/svg" xmlns:xlink="http://www.w3.org/1999/xlink" x="0px" y="0px"
	 width="82.773px" height="30.965px" viewBox="0 0 82.773 30.965" enable-background="new 0 0 82.773 30.965" xml:space="preserve">
<g>
	<g transform="matrix(1, 0, 0, 1, -735, -297)">
		<g>
			<path d="M736.5,306v12.965c0,4.143,3.358,7.5,7.5,7.5h64.773c4.143,0,7.5-3.357,7.5-7.5V306c0-4.143-3.357-7.5-7.5-7.5H744
				C739.858,298.5,736.5,301.857,736.5,306z"/>
		</g>
	</g>
	<g transform="matrix(1, 0, 0, 1, 18, 430.783203125)">
		<g>
			<path fill="#FFFFFF" d="M-0.057-410.518h-1.102v-3.727c0-0.301-0.018-0.583-0.053-0.847s-0.1-0.47-0.193-0.618
				c-0.098-0.164-0.238-0.286-0.422-0.366s-0.422-0.12-0.715-0.12c-0.301,0-0.615,0.074-0.943,0.223s-0.643,0.338-0.943,0.568v4.887
				h-1.102v-6.545h1.102v0.727c0.344-0.285,0.699-0.508,1.066-0.668s0.744-0.24,1.131-0.24c0.707,0,1.246,0.213,1.617,0.639
				s0.557,1.039,0.557,1.84V-410.518z M7.15-410.518H6.055v-0.697c-0.098,0.066-0.229,0.159-0.396,0.278s-0.327,0.214-0.483,0.284
				c-0.184,0.09-0.395,0.165-0.633,0.226s-0.518,0.091-0.838,0.091c-0.59,0-1.09-0.195-1.5-0.586s-0.615-0.889-0.615-1.494
				c0-0.496,0.106-0.897,0.319-1.204s0.517-0.548,0.911-0.724c0.398-0.176,0.877-0.295,1.436-0.357s1.158-0.109,1.799-0.141v-0.17
				c0-0.25-0.044-0.457-0.132-0.621s-0.214-0.293-0.378-0.387c-0.156-0.09-0.344-0.15-0.562-0.182s-0.447-0.047-0.686-0.047
				c-0.289,0-0.611,0.038-0.967,0.114s-0.723,0.187-1.102,0.331H2.17v-1.119c0.215-0.059,0.525-0.123,0.932-0.193
				s0.807-0.105,1.201-0.105c0.461,0,0.862,0.038,1.204,0.114s0.638,0.206,0.888,0.39c0.246,0.18,0.434,0.412,0.562,0.697
				s0.193,0.639,0.193,1.061V-410.518z M6.055-412.129v-1.822c-0.336,0.02-0.731,0.049-1.187,0.088s-0.815,0.096-1.081,0.17
				c-0.316,0.09-0.572,0.229-0.768,0.419s-0.293,0.45-0.293,0.782c0,0.375,0.113,0.657,0.34,0.847s0.572,0.284,1.037,0.284
				c0.387,0,0.74-0.075,1.061-0.226S5.781-411.918,6.055-412.129z M13.355-415.861h-0.059c-0.164-0.039-0.323-0.067-0.478-0.085
				s-0.337-0.026-0.548-0.026c-0.34,0-0.668,0.075-0.984,0.226s-0.621,0.345-0.914,0.583v4.646H9.271v-6.545h1.102v0.967
				c0.438-0.352,0.823-0.601,1.157-0.747s0.675-0.22,1.022-0.22c0.191,0,0.33,0.005,0.416,0.015s0.215,0.028,0.387,0.056V-415.861z
				 M18.477-415.861h-0.059c-0.164-0.039-0.323-0.067-0.478-0.085s-0.337-0.026-0.548-0.026c-0.34,0-0.668,0.075-0.984,0.226
				s-0.621,0.345-0.914,0.583v4.646h-1.102v-6.545h1.102v0.967c0.438-0.352,0.823-0.601,1.157-0.747s0.675-0.22,1.022-0.22
				c0.191,0,0.33,0.005,0.416,0.015s0.215,0.028,0.387,0.056V-415.861z M24.6-410.518h-1.096v-0.697
				c-0.098,0.066-0.229,0.159-0.396,0.278s-0.327,0.214-0.483,0.284c-0.184,0.09-0.395,0.165-0.633,0.226s-0.518,0.091-0.838,0.091
				c-0.59,0-1.09-0.195-1.5-0.586s-0.615-0.889-0.615-1.494c0-0.496,0.106-0.897,0.319-1.204s0.517-0.548,0.911-0.724
				c0.398-0.176,0.877-0.295,1.436-0.357s1.158-0.109,1.799-0.141v-0.17c0-0.25-0.044-0.457-0.132-0.621s-0.214-0.293-0.378-0.387
				c-0.156-0.09-0.344-0.15-0.562-0.182s-0.447-0.047-0.686-0.047c-0.289,0-0.611,0.038-0.967,0.114s-0.723,0.187-1.102,0.331
				h-0.059v-1.119c0.215-0.059,0.525-0.123,0.932-0.193s0.807-0.105,1.201-0.105c0.461,0,0.862,0.038,1.204,0.114
				s0.638,0.206,0.888,0.39c0.246,0.18,0.434,0.412,0.562,0.697s0.193,0.639,0.193,1.061V-410.518z M23.504-412.129v-1.822
				c-0.336,0.02-0.731,0.049-1.187,0.088s-0.815,0.096-1.081,0.17c-0.316,0.09-0.572,0.229-0.768,0.419s-0.293,0.45-0.293,0.782
				c0,0.375,0.113,0.657,0.34,0.847s0.572,0.284,1.037,0.284c0.387,0,0.74-0.075,1.061-0.226S23.23-411.918,23.504-412.129z
				 M30.119-410.576c-0.207,0.055-0.433,0.1-0.677,0.135s-0.462,0.053-0.653,0.053c-0.668,0-1.176-0.18-1.523-0.539
				s-0.521-0.936-0.521-1.729v-3.48H26v-0.926h0.744v-1.881h1.102v1.881h2.273v0.926h-2.273v2.982c0,0.344,0.008,0.612,0.023,0.806
				s0.07,0.374,0.164,0.542c0.086,0.156,0.204,0.271,0.354,0.343s0.38,0.108,0.688,0.108c0.18,0,0.367-0.026,0.562-0.079
				s0.336-0.097,0.422-0.132h0.059V-410.576z M32.633-418.158h-1.242v-1.143h1.242V-418.158z M32.562-410.518h-1.102v-6.545h1.102
				V-410.518z M40.402-417.062l-2.648,6.545h-1.107l-2.631-6.545h1.195l2.027,5.209l2.01-5.209H40.402z M47.322-413.676H42.5
				c0,0.402,0.061,0.753,0.182,1.052s0.287,0.544,0.498,0.735c0.203,0.188,0.444,0.328,0.724,0.422s0.587,0.141,0.923,0.141
				c0.445,0,0.894-0.089,1.345-0.267s0.772-0.353,0.964-0.524h0.059v1.201c-0.371,0.156-0.75,0.287-1.137,0.393
				s-0.793,0.158-1.219,0.158c-1.086,0-1.934-0.294-2.543-0.882s-0.914-1.423-0.914-2.505c0-1.07,0.292-1.92,0.876-2.549
				s1.353-0.943,2.306-0.943c0.883,0,1.563,0.258,2.042,0.773s0.718,1.248,0.718,2.197V-413.676z M46.25-414.52
				c-0.004-0.578-0.149-1.025-0.437-1.342s-0.724-0.475-1.31-0.475c-0.59,0-1.06,0.174-1.409,0.521s-0.548,0.779-0.595,1.295H46.25z
				 M53.668-412.404c0,0.598-0.247,1.088-0.741,1.471s-1.169,0.574-2.024,0.574c-0.484,0-0.929-0.058-1.333-0.173
				s-0.743-0.241-1.017-0.378v-1.236h0.059c0.348,0.262,0.734,0.47,1.16,0.624s0.834,0.231,1.225,0.231
				c0.484,0,0.863-0.078,1.137-0.234s0.41-0.402,0.41-0.738c0-0.258-0.074-0.453-0.223-0.586s-0.434-0.246-0.855-0.34
				c-0.156-0.035-0.36-0.076-0.612-0.123s-0.481-0.098-0.688-0.152c-0.574-0.152-0.981-0.376-1.222-0.671s-0.36-0.657-0.36-1.087
				c0-0.27,0.056-0.523,0.167-0.762s0.28-0.451,0.507-0.639c0.219-0.184,0.497-0.329,0.835-0.437s0.716-0.161,1.134-0.161
				c0.391,0,0.786,0.048,1.187,0.144s0.733,0.212,0.999,0.349v1.178h-0.059c-0.281-0.207-0.623-0.382-1.025-0.524
				s-0.797-0.214-1.184-0.214c-0.402,0-0.742,0.077-1.02,0.231s-0.416,0.384-0.416,0.688c0,0.27,0.084,0.473,0.252,0.609
				c0.164,0.137,0.43,0.248,0.797,0.334c0.203,0.047,0.431,0.094,0.683,0.141s0.462,0.09,0.63,0.129
				c0.512,0.117,0.906,0.318,1.184,0.604C53.529-413.264,53.668-412.881,53.668-412.404z"/>
		</g>
	</g>
	<g transform="matrix(1, 0, 0, 1, -735, -297)">
		<g>
			<path fill="none" stroke="#000000" stroke-width="3" stroke-linecap="square" stroke-miterlimit="10" d="M736.5,306v12.965
				c0,4.143,3.358,7.5,7.5,7.5h64.773c4.143,0,7.5-3.357,7.5-7.5V306c0-4.143-3.357-7.5-7.5-7.5H744
				C739.858,298.5,736.5,301.857,736.5,306z"/>
		</g>
	</g>
</g>
</svg>
