<?xml version="1.0" encoding="utf-8"?>
<!-- Generator: Adobe Illustrator 15.0.2, SVG Export Plug-In . SVG Version: 6.00 Build 0)  -->
<!DOCTYPE svg PUBLIC "-//W3C//DTD SVG 1.1//EN" "http://www.w3.org/Graphics/SVG/1.1/DTD/svg11.dtd">
<svg version="1.1" id="Layer_1" xmlns="http://www.w3.org/2000/svg" xmlns:xlink="http://www.w3.org/1999/xlink" x="0px" y="0px"
	 width="95.336px" height="33.197px" viewBox="0 0 95.336 33.197" enable-background="new 0 0 95.336 33.197" xml:space="preserve">
<g transform="matrix(1, 0, 0, 1, -735, -297)">
	<g>
		<path d="M736.5,306v15.197c0,4.142,3.358,7.5,7.5,7.5h77.336c4.143,0,7.5-3.358,7.5-7.5V306c0-4.142-3.357-7.5-7.5-7.5H744
			C739.858,298.5,736.5,301.858,736.5,306z"/>
	</g>
</g>
<g transform="matrix(1, 0, 0, 1, 10, 231.783203125)">
	<g>
		<path fill="#FFFFFF" d="M7.512-215.753c0,0.531-0.076,1.017-0.229,1.456s-0.367,0.812-0.645,1.116
			c-0.258,0.289-0.562,0.513-0.911,0.671s-0.72,0.237-1.11,0.237c-0.34,0-0.647-0.037-0.923-0.111s-0.556-0.189-0.841-0.346v2.742
			H1.752v-8.959h1.102v0.686c0.293-0.246,0.622-0.452,0.987-0.618s0.755-0.249,1.169-0.249c0.789,0,1.403,0.298,1.843,0.894
			S7.512-216.812,7.512-215.753z M6.375-215.724c0-0.789-0.135-1.379-0.404-1.77s-0.684-0.586-1.242-0.586
			c-0.316,0-0.635,0.068-0.955,0.205s-0.627,0.316-0.92,0.539v3.709c0.312,0.141,0.581,0.236,0.806,0.287s0.479,0.076,0.765,0.076
			c0.613,0,1.092-0.207,1.436-0.621S6.375-214.911,6.375-215.724z M13.312-217.745h-0.059c-0.164-0.039-0.323-0.067-0.478-0.085
			s-0.337-0.026-0.548-0.026c-0.34,0-0.668,0.075-0.984,0.226s-0.621,0.345-0.914,0.583v4.646H9.229v-6.545h1.102v0.967
			c0.438-0.352,0.823-0.601,1.157-0.747s0.675-0.22,1.022-0.22c0.191,0,0.33,0.005,0.416,0.015s0.215,0.028,0.387,0.056V-217.745z
			 M19.928-215.671c0,1.066-0.273,1.908-0.82,2.525s-1.279,0.926-2.197,0.926c-0.926,0-1.661-0.309-2.206-0.926
			s-0.817-1.459-0.817-2.525s0.272-1.909,0.817-2.528s1.28-0.929,2.206-0.929c0.918,0,1.65,0.31,2.197,0.929
			S19.928-216.737,19.928-215.671z M18.791-215.671c0-0.848-0.166-1.478-0.498-1.89s-0.793-0.618-1.383-0.618
			c-0.598,0-1.062,0.206-1.392,0.618s-0.495,1.042-0.495,1.89c0,0.82,0.166,1.442,0.498,1.866s0.795,0.636,1.389,0.636
			c0.586,0,1.046-0.21,1.38-0.63S18.791-214.843,18.791-215.671z M27.393-215.753c0,0.531-0.076,1.017-0.229,1.456
			s-0.367,0.812-0.645,1.116c-0.258,0.289-0.562,0.513-0.911,0.671s-0.72,0.237-1.11,0.237c-0.34,0-0.647-0.037-0.923-0.111
			s-0.556-0.189-0.841-0.346v2.742h-1.102v-8.959h1.102v0.686c0.293-0.246,0.622-0.452,0.987-0.618s0.755-0.249,1.169-0.249
			c0.789,0,1.403,0.298,1.843,0.894S27.393-216.812,27.393-215.753z M26.256-215.724c0-0.789-0.135-1.379-0.404-1.77
			s-0.684-0.586-1.242-0.586c-0.316,0-0.635,0.068-0.955,0.205s-0.627,0.316-0.92,0.539v3.709c0.312,0.141,0.581,0.236,0.806,0.287
			s0.479,0.076,0.765,0.076c0.613,0,1.092-0.207,1.436-0.621S26.256-214.911,26.256-215.724z M34.688-215.671
			c0,1.066-0.273,1.908-0.82,2.525s-1.279,0.926-2.197,0.926c-0.926,0-1.661-0.309-2.206-0.926s-0.817-1.459-0.817-2.525
			s0.272-1.909,0.817-2.528s1.28-0.929,2.206-0.929c0.918,0,1.65,0.31,2.197,0.929S34.688-216.737,34.688-215.671z M33.551-215.671
			c0-0.848-0.166-1.478-0.498-1.89s-0.793-0.618-1.383-0.618c-0.598,0-1.062,0.206-1.392,0.618s-0.495,1.042-0.495,1.89
			c0,0.82,0.166,1.442,0.498,1.866s0.795,0.636,1.389,0.636c0.586,0,1.046-0.21,1.38-0.63S33.551-214.843,33.551-215.671z
			 M41.068-214.288c0,0.598-0.247,1.088-0.741,1.471s-1.169,0.574-2.024,0.574c-0.484,0-0.929-0.058-1.333-0.173
			s-0.743-0.241-1.017-0.378v-1.236h0.059c0.348,0.262,0.734,0.47,1.16,0.624s0.834,0.231,1.225,0.231
			c0.484,0,0.863-0.078,1.137-0.234s0.41-0.402,0.41-0.738c0-0.258-0.074-0.453-0.223-0.586s-0.434-0.246-0.855-0.34
			c-0.156-0.035-0.36-0.076-0.612-0.123s-0.481-0.098-0.688-0.152c-0.574-0.152-0.981-0.376-1.222-0.671s-0.36-0.657-0.36-1.087
			c0-0.27,0.056-0.523,0.167-0.762s0.28-0.451,0.507-0.639c0.219-0.184,0.497-0.329,0.835-0.437s0.716-0.161,1.134-0.161
			c0.391,0,0.786,0.048,1.187,0.144s0.733,0.212,0.999,0.349v1.178h-0.059c-0.281-0.207-0.623-0.382-1.025-0.524
			s-0.797-0.214-1.184-0.214c-0.402,0-0.742,0.077-1.02,0.231s-0.416,0.384-0.416,0.688c0,0.27,0.084,0.473,0.252,0.609
			c0.164,0.137,0.43,0.248,0.797,0.334c0.203,0.047,0.431,0.094,0.683,0.141s0.462,0.09,0.63,0.129
			c0.512,0.117,0.906,0.318,1.184,0.604C40.93-215.147,41.068-214.765,41.068-214.288z M43.828-220.042h-1.242v-1.143h1.242
			V-220.042z M43.758-212.401h-1.102v-6.545h1.102V-212.401z M49.336-212.46c-0.207,0.055-0.433,0.1-0.677,0.135
			s-0.462,0.053-0.653,0.053c-0.668,0-1.176-0.18-1.523-0.539s-0.521-0.936-0.521-1.729v-3.48h-0.744v-0.926h0.744v-1.881h1.102
			v1.881h2.273v0.926h-2.273v2.982c0,0.344,0.008,0.612,0.023,0.806s0.07,0.374,0.164,0.542c0.086,0.156,0.204,0.271,0.354,0.343
			s0.38,0.108,0.688,0.108c0.18,0,0.367-0.026,0.562-0.079s0.336-0.097,0.422-0.132h0.059V-212.46z M51.85-220.042h-1.242v-1.143
			h1.242V-220.042z M51.779-212.401h-1.102v-6.545h1.102V-212.401z M59.537-215.671c0,1.066-0.273,1.908-0.82,2.525
			s-1.279,0.926-2.197,0.926c-0.926,0-1.661-0.309-2.206-0.926s-0.817-1.459-0.817-2.525s0.272-1.909,0.817-2.528
			s1.28-0.929,2.206-0.929c0.918,0,1.65,0.31,2.197,0.929S59.537-216.737,59.537-215.671z M58.4-215.671
			c0-0.848-0.166-1.478-0.498-1.89s-0.793-0.618-1.383-0.618c-0.598,0-1.062,0.206-1.392,0.618s-0.495,1.042-0.495,1.89
			c0,0.82,0.166,1.442,0.498,1.866s0.795,0.636,1.389,0.636c0.586,0,1.046-0.21,1.38-0.63S58.4-214.843,58.4-215.671z
			 M66.715-212.401h-1.102v-3.727c0-0.301-0.018-0.583-0.053-0.847s-0.1-0.47-0.193-0.618c-0.098-0.164-0.238-0.286-0.422-0.366
			s-0.422-0.12-0.715-0.12c-0.301,0-0.615,0.074-0.943,0.223s-0.643,0.338-0.943,0.568v4.887h-1.102v-6.545h1.102v0.727
			c0.344-0.285,0.699-0.508,1.066-0.668s0.744-0.24,1.131-0.24c0.707,0,1.246,0.213,1.617,0.639s0.557,1.039,0.557,1.84V-212.401z
			 M73.512-214.288c0,0.598-0.247,1.088-0.741,1.471s-1.169,0.574-2.024,0.574c-0.484,0-0.929-0.058-1.333-0.173
			s-0.743-0.241-1.017-0.378v-1.236h0.059c0.348,0.262,0.734,0.47,1.16,0.624s0.834,0.231,1.225,0.231
			c0.484,0,0.863-0.078,1.137-0.234s0.41-0.402,0.41-0.738c0-0.258-0.074-0.453-0.223-0.586s-0.434-0.246-0.855-0.34
			c-0.156-0.035-0.36-0.076-0.612-0.123s-0.481-0.098-0.688-0.152c-0.574-0.152-0.981-0.376-1.222-0.671s-0.36-0.657-0.36-1.087
			c0-0.27,0.056-0.523,0.167-0.762s0.28-0.451,0.507-0.639c0.219-0.184,0.497-0.329,0.835-0.437s0.716-0.161,1.134-0.161
			c0.391,0,0.786,0.048,1.187,0.144s0.733,0.212,0.999,0.349v1.178h-0.059c-0.281-0.207-0.623-0.382-1.025-0.524
			s-0.797-0.214-1.184-0.214c-0.402,0-0.742,0.077-1.02,0.231s-0.416,0.384-0.416,0.688c0,0.27,0.084,0.473,0.252,0.609
			c0.164,0.137,0.43,0.248,0.797,0.334c0.203,0.047,0.431,0.094,0.683,0.141s0.462,0.09,0.63,0.129
			c0.512,0.117,0.906,0.318,1.184,0.604C73.373-215.147,73.512-214.765,73.512-214.288z"/>
	</g>
</g>
<g transform="matrix(1, 0, 0, 1, -735, -297)">
	<g>
		<path fill="none" stroke="#000000" stroke-width="3" stroke-linecap="square" stroke-miterlimit="10" d="M736.5,306v15.197
			c0,4.142,3.358,7.5,7.5,7.5h77.336c4.143,0,7.5-3.358,7.5-7.5V306c0-4.142-3.357-7.5-7.5-7.5H744
			C739.858,298.5,736.5,301.858,736.5,306z"/>
	</g>
</g>
</svg>
