<?xml version="1.0" encoding="utf-8"?>
<!-- Generator: Adobe Illustrator 15.0.2, SVG Export Plug-In . SVG Version: 6.00 Build 0)  -->
<!DOCTYPE svg PUBLIC "-//W3C//DTD SVG 1.1//EN" "http://www.w3.org/Graphics/SVG/1.1/DTD/svg11.dtd">
<svg version="1.1" id="Layer_1" xmlns="http://www.w3.org/2000/svg" xmlns:xlink="http://www.w3.org/1999/xlink" x="0px" y="0px"
	 width="88.609px" height="31.299px" viewBox="0 0 88.609 31.299" enable-background="new 0 0 88.609 31.299" xml:space="preserve">
<g transform="matrix(1, 0, 0, 1, -735, -297)">
	<g>
		<path d="M736.5,306v13.299c0,4.142,3.358,7.5,7.5,7.5h70.609c4.143,0,7.5-3.358,7.5-7.5V306c0-4.142-3.357-7.5-7.5-7.5H744
			C739.858,298.5,736.5,301.858,736.5,306z"/>
	</g>
</g>
<g transform="matrix(1, 0, 0, 1, 14, 19.1171875)">
	<g>
		<path fill="#FFFFFF" d="M6.621-5.896L4.916,0.649h-1.02L2.215-4.396l-1.67,5.045h-1.014l-1.723-6.545h1.148l1.201,5.068
			l1.635-5.068h0.908l1.676,5.068l1.137-5.068H6.621z M13.787-2.62c0,1.066-0.273,1.908-0.82,2.525s-1.279,0.926-2.197,0.926
			c-0.926,0-1.661-0.309-2.206-0.926S7.746-1.554,7.746-2.62s0.272-1.909,0.817-2.528s1.28-0.929,2.206-0.929
			c0.918,0,1.65,0.31,2.197,0.929S13.787-3.687,13.787-2.62z M12.65-2.62c0-0.848-0.166-1.478-0.498-1.89s-0.793-0.618-1.383-0.618
			c-0.598,0-1.062,0.206-1.392,0.618S8.883-3.468,8.883-2.62c0,0.82,0.166,1.442,0.498,1.866s0.795,0.636,1.389,0.636
			c0.586,0,1.046-0.21,1.38-0.63S12.65-1.792,12.65-2.62z M19.576-4.694h-0.059c-0.164-0.039-0.323-0.067-0.478-0.085
			s-0.337-0.026-0.548-0.026c-0.34,0-0.668,0.075-0.984,0.226s-0.621,0.345-0.914,0.583v4.646h-1.102v-6.545h1.102v0.967
			c0.438-0.352,0.823-0.601,1.157-0.747s0.675-0.22,1.022-0.22c0.191,0,0.33,0.005,0.416,0.015s0.215,0.028,0.387,0.056V-4.694z
			 M21.727,0.649h-1.102v-9.117h1.102V0.649z M29.215,0.649h-1.102v-0.686c-0.316,0.273-0.646,0.486-0.99,0.639
			s-0.717,0.229-1.119,0.229c-0.781,0-1.401-0.301-1.86-0.902s-0.688-1.436-0.688-2.502c0-0.555,0.079-1.049,0.237-1.482
			s0.372-0.803,0.642-1.107c0.266-0.297,0.575-0.523,0.929-0.68s0.72-0.234,1.099-0.234c0.344,0,0.648,0.036,0.914,0.108
			s0.545,0.185,0.838,0.337v-2.836h1.102V0.649z M28.113-0.962v-3.756c-0.297-0.133-0.562-0.225-0.797-0.275
			s-0.49-0.076-0.768-0.076c-0.617,0-1.098,0.215-1.441,0.645s-0.516,1.039-0.516,1.828c0,0.777,0.133,1.368,0.398,1.772
			s0.691,0.606,1.277,0.606c0.312,0,0.629-0.069,0.949-0.208S27.836-0.743,28.113-0.962z M37.043-5.896l-2.648,6.545h-1.107
			l-2.631-6.545h1.195l2.027,5.209l2.01-5.209H37.043z M39.668-6.991h-1.242v-1.143h1.242V-6.991z M39.598,0.649h-1.102v-6.545
			h1.102V0.649z M47.256-2.509h-4.822c0,0.402,0.061,0.753,0.182,1.052s0.287,0.544,0.498,0.735
			c0.203,0.188,0.444,0.328,0.724,0.422s0.587,0.141,0.923,0.141c0.445,0,0.894-0.089,1.345-0.267s0.772-0.353,0.964-0.524h0.059
			v1.201c-0.371,0.156-0.75,0.287-1.137,0.393s-0.793,0.158-1.219,0.158c-1.086,0-1.934-0.294-2.543-0.882s-0.914-1.423-0.914-2.505
			c0-1.07,0.292-1.92,0.876-2.549s1.353-0.943,2.306-0.943c0.883,0,1.563,0.258,2.042,0.773s0.718,1.248,0.718,2.197V-2.509z
			 M46.184-3.353c-0.004-0.578-0.149-1.025-0.437-1.342s-0.724-0.475-1.31-0.475c-0.59,0-1.06,0.174-1.409,0.521
			s-0.548,0.779-0.595,1.295H46.184z M57.158-5.896l-1.705,6.545h-1.02l-1.682-5.045l-1.67,5.045h-1.014l-1.723-6.545h1.148
			l1.201,5.068l1.635-5.068h0.908l1.676,5.068l1.137-5.068H57.158z M63.422-1.237c0,0.598-0.247,1.088-0.741,1.471
			s-1.169,0.574-2.024,0.574c-0.484,0-0.929-0.058-1.333-0.173s-0.743-0.241-1.017-0.378v-1.236h0.059
			c0.348,0.262,0.734,0.47,1.16,0.624s0.834,0.231,1.225,0.231c0.484,0,0.863-0.078,1.137-0.234s0.41-0.402,0.41-0.738
			c0-0.258-0.074-0.453-0.223-0.586s-0.434-0.246-0.855-0.34c-0.156-0.035-0.36-0.076-0.612-0.123s-0.481-0.098-0.688-0.152
			c-0.574-0.152-0.981-0.376-1.222-0.671s-0.36-0.657-0.36-1.087c0-0.27,0.056-0.523,0.167-0.762s0.28-0.451,0.507-0.639
			c0.219-0.184,0.497-0.329,0.835-0.437s0.716-0.161,1.134-0.161c0.391,0,0.786,0.048,1.187,0.144s0.733,0.212,0.999,0.349v1.178
			h-0.059c-0.281-0.207-0.623-0.382-1.025-0.524s-0.797-0.214-1.184-0.214c-0.402,0-0.742,0.077-1.02,0.231
			s-0.416,0.384-0.416,0.688c0,0.27,0.084,0.473,0.252,0.609c0.164,0.137,0.43,0.248,0.797,0.334
			c0.203,0.047,0.431,0.094,0.683,0.141s0.462,0.09,0.63,0.129c0.512,0.117,0.906,0.318,1.184,0.604
			C63.283-2.097,63.422-1.714,63.422-1.237z"/>
	</g>
</g>
<g transform="matrix(1, 0, 0, 1, -735, -297)">
	<g>
		<path fill="none" stroke="#000000" stroke-width="3" stroke-linecap="square" stroke-miterlimit="10" d="M736.5,306v13.299
			c0,4.142,3.358,7.5,7.5,7.5h70.609c4.143,0,7.5-3.358,7.5-7.5V306c0-4.142-3.357-7.5-7.5-7.5H744
			C739.858,298.5,736.5,301.858,736.5,306z"/>
	</g>
</g>
</svg>
